<?xml version="1.0" encoding="utf-8"?>
<!-- Generator: Adobe Illustrator 23.0.1, SVG Export Plug-In . SVG Version: 6.00 Build 0)  -->
<svg version="1.1" id="Livello_1" xmlns="http://www.w3.org/2000/svg" xmlns:xlink="http://www.w3.org/1999/xlink" x="0px" y="0px"
	 viewBox="0 0 800 800" style="enable-background:new 0 0 800 800;" xml:space="preserve">
<g>
	<path d="M545.27,469.59c-1.17,0-2.34-0.27-3.42-0.83l-139.39-71.6c-2.5-1.28-4.07-3.86-4.07-6.67V125.02
		c0-3.58,2.53-6.66,6.04-7.36c3.51-0.7,7.02,1.18,8.39,4.49l139.39,337.07c1.2,2.91,0.46,6.25-1.85,8.38
		C548.94,468.91,547.12,469.59,545.27,469.59z M413.39,385.91l117.15,60.18L413.39,162.78V385.91z"/>
</g>
<g>
	<path d="M405.89,663.42c-0.47,0-0.94-0.04-1.41-0.13c-2.87-0.55-5.16-2.72-5.86-5.55l-52.8-211.87c-0.63-2.54,0.1-5.22,1.94-7.08
		l52.8-53.56c2.3-2.33,5.85-2.9,8.77-1.41l139.39,71.6c1.94,1,3.35,2.79,3.86,4.91c0.51,2.12,0.07,4.36-1.2,6.14L411.98,660.3
		C410.55,662.28,408.27,663.42,405.89,663.42z M361.39,446.32l47.87,192.08L534.1,464.78l-126.74-65.1L361.39,446.32z"/>
</g>
<g>
	<path d="M405.89,663.42c-2.25,0-4.46-1.02-5.92-2.89L248.81,466.7c-1.61-2.07-2.03-4.83-1.1-7.28s3.08-4.24,5.66-4.71l98.37-18.04
		c3.89-0.72,7.67,1.72,8.63,5.56l52.8,211.87c0.86,3.44-0.81,7-3.99,8.56C408.12,663.18,407,663.42,405.89,663.42z M268.25,467.23
		l121.81,156.2L347.52,452.7L268.25,467.23z"/>
</g>
<g>
	<path d="M254.72,469.59c-2.28,0-4.46-1.04-5.9-2.87c-1.72-2.19-2.08-5.16-0.94-7.7l151.16-337.07c1.45-3.23,4.96-5,8.41-4.27
		c3.46,0.74,5.93,3.8,5.93,7.33v265.48c0,1.97-0.78,3.86-2.16,5.26l-52.8,53.56c-1.08,1.1-2.47,1.83-3.99,2.11l-98.37,18.04
		C255.63,469.55,255.17,469.59,254.72,469.59z M398.39,160.07L267.41,452.14l82-15.04l48.98-49.69V160.07z"/>
</g>
</svg>
