<?xml version="1.0" encoding="utf-8"?>
<!-- Generator: Adobe Illustrator 23.0.1, SVG Export Plug-In . SVG Version: 6.00 Build 0)  -->
<svg version="1.1" id="Livello_1" xmlns="http://www.w3.org/2000/svg" xmlns:xlink="http://www.w3.org/1999/xlink" x="0px" y="0px"
	 viewBox="0 0 800 800" style="enable-background:new 0 0 800 800;" xml:space="preserve">
<style type="text/css">
	.st0{fill:#FFFFFF;}
</style>
<g>
	<path class="st0" d="M545.3,469.6c-1.2,0-2.3-0.3-3.4-0.8l-139.4-71.6c-2.5-1.3-4.1-3.9-4.1-6.7V125c0-3.6,2.5-6.7,6-7.4
		c3.5-0.7,7,1.2,8.4,4.5l139.4,337.1c1.2,2.9,0.5,6.2-1.8,8.4C548.9,468.9,547.1,469.6,545.3,469.6z M413.4,385.9l117.2,60.2
		L413.4,162.8V385.9z"/>
</g>
<g>
	<path class="st0" d="M405.9,663.4c-0.5,0-0.9,0-1.4-0.1c-2.9-0.5-5.2-2.7-5.9-5.5l-52.8-211.9c-0.6-2.5,0.1-5.2,1.9-7.1l52.8-53.6
		c2.3-2.3,5.9-2.9,8.8-1.4l139.4,71.6c1.9,1,3.3,2.8,3.9,4.9s0.1,4.4-1.2,6.1L412,660.3C410.5,662.3,408.3,663.4,405.9,663.4z
		 M361.4,446.3l47.9,192.1l124.8-173.6l-126.7-65.1L361.4,446.3z"/>
</g>
<g>
	<path class="st0" d="M405.9,663.4c-2.2,0-4.5-1-5.9-2.9L248.8,466.7c-1.6-2.1-2-4.8-1.1-7.3s3.1-4.2,5.7-4.7l98.4-18
		c3.9-0.7,7.7,1.7,8.6,5.6l52.8,211.9c0.9,3.4-0.8,7-4,8.6C408.1,663.2,407,663.4,405.9,663.4z M268.2,467.2l121.8,156.2
		l-42.5-170.7L268.2,467.2z"/>
</g>
<g>
	<path class="st0" d="M254.7,469.6c-2.3,0-4.5-1-5.9-2.9c-1.7-2.2-2.1-5.2-0.9-7.7L399,121.9c1.5-3.2,5-5,8.4-4.3
		c3.5,0.7,5.9,3.8,5.9,7.3v265.5c0,2-0.8,3.9-2.2,5.3l-52.8,53.6c-1.1,1.1-2.5,1.8-4,2.1l-98.4,18
		C255.6,469.5,255.2,469.6,254.7,469.6z M398.4,160.1l-131,292.1l82-15l49-49.7V160.1z"/>
</g>
</svg>
